<?xml version="1.0" encoding="UTF-8"?>
<!DOCTYPE svg PUBLIC "-//W3C//DTD SVG 1.1//EN" "http://www.w3.org/Graphics/SVG/1.1/DTD/svg11.dtd">
<svg version="1.1" xmlns="http://www.w3.org/2000/svg" xmlns:xlink="http://www.w3.org/1999/xlink" x="0" y="0" width="512" height="512" viewBox="0, 0, 512, 512">
  <g id="Layer_1">
    <path d="M182.31,105.498 C191.579,105.498 199.162,112.265 199.162,120.536 L199.162,131.814 C199.162,133.89 201.048,135.574 203.375,135.574 L207.587,135.574 L207.587,143.093 L203.375,143.093 C201.048,143.093 199.162,144.776 199.162,146.852 L199.162,158.132 C199.162,166.401 191.579,173.168 182.31,173.168 L182.31,165.649 C184.543,165.649 186.653,164.863 188.254,163.434 C189.854,162.006 190.736,160.123 190.736,158.132 L190.736,143.092 C190.736,141.017 192.622,139.333 194.949,139.333 C192.622,139.333 190.736,137.65 190.736,135.575 L190.736,120.536 C190.736,118.545 189.855,116.661 188.254,115.233 C186.653,113.804 184.543,113.017 182.31,113.017 L182.31,105.498 z" fill="#000000"/>
    <path d="M165.459,105.498 L165.459,113.017 C163.227,113.017 161.116,113.804 159.515,115.232 C157.915,116.661 157.033,118.544 157.033,120.536 L157.033,135.574 C157.033,137.649 155.147,139.333 152.82,139.333 C155.147,139.333 157.033,141.016 157.033,143.092 L157.033,158.131 C157.033,160.122 157.915,162.005 159.515,163.434 C161.116,164.862 163.227,165.649 165.459,165.649 L165.459,173.168 C156.191,173.168 148.607,166.401 148.607,158.132 L148.607,146.852 C148.607,144.776 146.721,143.092 144.395,143.092 L140.182,143.092 L140.182,135.574 L144.395,135.574 C146.721,135.574 148.607,133.89 148.607,131.814 L148.607,120.536 C148.607,112.265 156.191,105.498 165.459,105.498 z" fill="#000000"/>
    <path d="M100,74 L412,74 L412,204.667 L100,204.667 L100,74 z" fill-opacity="0" stroke="#000000" stroke-width="20"/>
    <path d="M174.667,207.333 L174.667,281.333" fill-opacity="0" stroke="#000000" stroke-width="16"/>
    <path d="M174.667,281.497 L227.03,281.333" fill-opacity="0" stroke="#000000" stroke-width="16" stroke-linecap="square"/>
    <path d="M227.03,238.167 L413.275,238.167 L413.275,296.833 L227.03,296.833 L227.03,238.167 z" fill-opacity="0" stroke="#000000" stroke-width="16"/>
    <path d="M260.303,304.167 L260.303,350" fill-opacity="0" stroke="#000000" stroke-width="16"/>
    <path d="M260.303,350.163 L312.667,350" fill-opacity="0" stroke="#000000" stroke-width="16" stroke-linecap="square"/>
    <path d="M320.088,325.333 L465.667,325.333 L465.667,378 L320.088,378 L320.088,325.333 z" fill-opacity="0" stroke="#000000" stroke-width="16"/>
  </g>
</svg>
